<svg width="144" height="32" viewBox="0 0 144 32" fill="none" xmlns="http://www.w3.org/2000/svg">
<path fill-rule="evenodd" clip-rule="evenodd" d="M39.2926 18.5172L38.063 20.12C37.5056 20.8465 36.589 21.188 35.7002 21.0002C35.0121 20.8548 34.5706 20.1714 34.7139 19.4737C34.7258 19.4159 34.7416 19.3591 34.7611 19.3035C35.7825 16.3989 36.1077 14.4805 35.7366 13.5481C34.2088 15.3888 26.4038 27.3912 23.9369 27.9609C23.1133 28.1511 22.2936 27.6284 22.106 26.7933C22.0426 26.5107 22.0584 26.2158 22.1518 25.942C24.4828 19.1083 25.4696 14.9761 25.1124 13.5456C23.8814 15.302 22.0528 17.6659 19.6268 20.6374C18.7156 21.7535 17.2617 22.2537 15.8688 21.9304C14.6439 21.646 13.8783 20.4087 14.1585 19.1667C14.1603 19.1585 14.1621 19.1503 14.1643 19.1422C15.0084 15.5822 15.3213 13.4994 15.1029 12.8937C15.0066 12.9681 14.9087 13.0444 14.8094 13.1226C13.6967 13.9982 12.3036 14.425 10.8989 14.3204L-0.000517532 13.5095L7.22068 12.6769C9.23658 12.4444 11.0831 11.4217 12.3652 9.82719L14.0933 7.67819C14.659 6.97459 15.5282 6.59579 16.4209 6.66399C17.3079 6.73169 18.0412 7.39139 18.2131 8.27619C18.635 10.4496 18.7026 13.015 18.4157 15.9723C20.584 12.6873 22.4654 7.96279 24.0597 1.79889C24.3338 0.738889 25.2785 -1.16735e-05 26.3591 -1.15791e-05C27.391 -1.14889e-05 28.2363 0.831189 28.268 1.87699L28.7458 17.6383L33.3671 8.40399C33.8481 7.44299 34.9064 6.93009 35.9459 7.15429C37.0473 7.39179 37.9584 8.17229 38.3734 9.23369L38.8912 10.5583C39.624 12.4325 41.2777 13.7756 43.2416 14.0913C45.4013 14.4386 47.5609 14.7857 49.7206 15.1329L44.91 15.4779C42.697 15.6366 40.6547 16.7416 39.2926 18.5172Z" fill="#904CF8"/>
<path d="M68.3352 10.375L65.2981 21H63.2278L59.429 6.9082H61.7043L64.3118 17.9434H64.3899L67.3684 6.9082H69.3997L72.3879 17.9434H72.4661L75.0735 6.9082H77.3489L73.5403 21H71.4797L68.4329 10.375H68.3352Z" fill="#2D2D2D"/>
<path d="M81.3293 19.5059C82.804 19.5059 83.9563 18.4902 83.9563 17.1523V16.3418L81.427 16.498C80.1672 16.5859 79.4543 17.1426 79.4543 18.0215C79.4543 18.9199 80.1965 19.5059 81.3293 19.5059ZM80.7434 21.1758C78.7317 21.1758 77.3254 19.9258 77.3254 18.0801C77.3254 16.2832 78.7024 15.1797 81.1438 15.043L83.9563 14.877V14.0859C83.9563 12.9434 83.1848 12.2598 81.8958 12.2598C80.675 12.2598 79.9133 12.8457 79.7278 13.7637H77.7356C77.8528 11.9082 79.4348 10.541 81.9739 10.541C84.4641 10.541 86.0559 11.8594 86.0559 13.9199V21H84.0344V19.3105H83.9856C83.3899 20.4531 82.0911 21.1758 80.7434 21.1758Z" fill="#2D2D2D"/>
<path d="M97.1262 10.7266L93.4446 21H91.179L87.4778 10.7266H89.7239L92.302 18.9395H92.3411L94.9192 10.7266H97.1262Z" fill="#2D2D2D"/>
<path d="M102.591 12.2402C101.116 12.2402 100.081 13.3633 99.9739 14.916H105.111C105.062 13.3438 104.066 12.2402 102.591 12.2402ZM105.101 17.9824H107.103C106.81 19.8574 105.032 21.1953 102.679 21.1953C99.6614 21.1953 97.8352 19.1543 97.8352 15.9121C97.8352 12.6895 99.6907 10.541 102.591 10.541C105.443 10.541 107.22 12.5527 107.22 15.668V16.3906H99.9641V16.5176C99.9641 18.3047 101.038 19.4863 102.728 19.4863C103.929 19.4863 104.818 18.8809 105.101 17.9824Z" fill="#2D2D2D"/>
<path d="M114.687 21H112.294L107.265 6.9082H109.638L113.476 18.5391H113.534L117.382 6.9082H119.716L114.687 21Z" fill="#2D2D2D"/>
<path d="M124.322 21.1953C121.382 21.1953 119.448 19.1738 119.448 15.8633C119.448 12.5625 121.392 10.541 124.322 10.541C127.251 10.541 129.195 12.5625 129.195 15.8633C129.195 19.1738 127.261 21.1953 124.322 21.1953ZM124.322 19.457C125.982 19.457 127.046 18.1484 127.046 15.8633C127.046 13.5879 125.972 12.2793 124.322 12.2793C122.671 12.2793 121.597 13.5879 121.597 15.8633C121.597 18.1484 122.671 19.457 124.322 19.457Z" fill="#2D2D2D"/>
<path d="M134.708 17.2207H134.659L132.384 21H130.099L133.488 15.873L130.148 10.7266H132.511L134.757 14.4473H134.796L137.013 10.7266H139.337L135.968 15.8047L139.298 21H136.974L134.708 17.2207Z" fill="#2D2D2D"/>
</svg>
